<svg width="100" height="100" viewBox="0 0 100 100" fill="none" xmlns="http://www.w3.org/2000/svg">
<circle cx="50" cy="50" r="48" stroke="#9298A8" stroke-width="4"/>
<path d="M17.1055 42.4282V42.4521H21.2686V42.4282C21.2686 38.5762 24.3311 35.6572 28.3745 35.6572C32.1787 35.6572 35.2173 38.313 35.2173 41.6387C35.2173 44.5098 34.1167 46.3521 29.4751 51.2329L17.3208 64.0332V67H40.0981V63.1719H23.2783V63.0762L32.0112 54.0562C37.7773 48.0986 39.5239 45.2275 39.5239 41.3755C39.5239 36.0879 34.667 31.9009 28.4941 31.9009C21.9863 31.9009 17.1055 36.3989 17.1055 42.4282ZM53.8794 67H58.0425V32.4751H53.8315L44.644 39.0786V43.6245L53.7837 37.0449H53.8794V67Z" fill="#9298A8"/>
<path d="M77.2441 52.1836H84.9585V49.2568H77.2441V41.1812H74.3174V49.2568H66.603V52.1836H74.3174V60.458H77.2441V52.1836Z" fill="#9298A8"/>
</svg>
