<?xml version="1.0" encoding="UTF-8" standalone="no"?>
<!-- Created with Keyshape -->
<svg xmlns="http://www.w3.org/2000/svg" viewBox="0 0 310 49" text-rendering="geometricPrecision" shape-rendering="geometricPrecision" style="white-space: pre;">
    <style>
@keyframes summa_t { 0% { transform: translate(29.941px,7.48999px) scale(1,1) translate(-29.9566px,-7.48999px); } 12.5% { transform: translate(29.6476px,7.98999px) scale(1.05,1.05) translate(-29.9566px,-7.48999px); } 25% { transform: translate(29.941px,7.48999px) scale(1,1) translate(-29.9566px,-7.48999px); } 37.5% { transform: translate(29.6476px,7.98999px) scale(1.1,1.1) translate(-29.9566px,-7.48999px); } 50% { transform: translate(29.941px,7.48999px) scale(1,1) translate(-29.9566px,-7.48999px); } 62.5% { transform: translate(29.6476px,7.98999px) scale(1.05,1.05) translate(-29.9566px,-7.48999px); } 75% { transform: translate(29.941px,7.48999px) scale(1,1) translate(-29.9566px,-7.48999px); } 87.5% { transform: translate(29.6476px,7.98999px) scale(1.1,1.1) translate(-29.9566px,-7.48999px); } 100% { transform: translate(29.941px,7.48999px) scale(1,1) translate(-29.9566px,-7.48999px); } }
@keyframes stroke_01_f { 0% { fill: #ffa900; animation-timing-function: cubic-bezier(0.42,0,0.58,1); } 12.5% { fill: #fa1dc4; animation-timing-function: cubic-bezier(0.42,0,0.58,1); } 50% { fill: #ffffff; animation-timing-function: cubic-bezier(0.42,0,0.58,1); } 62.5% { fill: #ffa900; } 100% { fill: #ffa900; } }
@keyframes a0_o { 0% { opacity: 1; } 25% { opacity: 0.6; } 50% { opacity: 1; } 75% { opacity: 0.6; } 100% { opacity: 1; } }
@keyframes stroke_02_f { 0% { fill: #ffa900; animation-timing-function: cubic-bezier(0.42,0,0.58,1); } 12.5% { fill: #fa1dc4; animation-timing-function: cubic-bezier(0.42,0,0.58,1); } 50% { fill: #ffffff; animation-timing-function: cubic-bezier(0.42,0,0.58,1); } 62.5% { fill: #ffa900; } 100% { fill: #ffa900; } }
@keyframes a1_do { 0% { stroke-dashoffset: 0px; } 100% { stroke-dashoffset: 11px; } }
@keyframes a2_sw { 0% { stroke-width: 1px; animation-timing-function: cubic-bezier(0,0,1,1); } 100% { stroke-width: 1px; } }
@keyframes a2_do { 0% { stroke-dashoffset: 5.5px; animation-timing-function: cubic-bezier(0,0,1,1); } 100% { stroke-dashoffset: 16.5px; } }
@keyframes a3_t { 0% { transform: translate(8.51125px,8.50418px) rotate(0deg) scale(1,1) translate(-6.50725px,-6.50502px); } 25% { transform: translate(8.51125px,8.50418px) rotate(-10deg) scale(1.1,1.1) translate(-6.50725px,-6.50502px); } 50% { transform: translate(8.51125px,8.50418px) rotate(20deg) scale(1.2,1.2) translate(-6.50725px,-6.50502px); } 75% { transform: translate(8.51125px,8.50418px) rotate(-10deg) scale(1.1,1.1) translate(-6.50725px,-6.50502px); } 100% { transform: translate(8.51125px,8.50418px) rotate(0deg) scale(1,1) translate(-6.50725px,-6.50502px); } }
@keyframes a4_t { 0% { transform: translate(3.52083px,8.66667px) rotate(0deg) scale(0.3,0.3) translate(-3.52083px,-8.66667px); } 50% { transform: translate(3.52083px,8.66667px) rotate(-45deg) scale(1,1) translate(-3.52083px,-8.66667px); } 100% { transform: translate(3.52083px,8.66667px) rotate(-90deg) scale(0.3,0.3) translate(-3.52083px,-8.66667px); } }
@keyframes a5_t { 0% { transform: translate(8.66667px,3.25px) rotate(0deg) scale(0.3,0.3) translate(-8.66667px,-3.25px); } 50% { transform: translate(8.66667px,3.25px) rotate(45deg) scale(1,1) translate(-8.66667px,-3.25px); } 100% { transform: translate(8.66667px,3.25px) rotate(90deg) scale(0.3,0.3) translate(-8.66667px,-3.25px); } }
    </style>
    <defs>
        <symbol id="Symbol-1" preserveAspectRatio="none" width="65" height="15" viewBox="-3 0 65 15" overflow="visible">
            <g id="summa" transform="translate(29.941,7.48999) translate(-29.9566,-7.48999)" style="animation: 0.8s linear infinite both summa_t;">
                <path id="Summa-30000000" fill="#FEAE06" filter="url(#Filter-0)" d="M5.62354,-6.09619C5.62354,-5.60563,5.47493,-5.18848,5.17773,-4.84473C4.88053,-4.50098,4.46338,-4.26465,3.92627,-4.13574L3.92627,-4.10352C4.56006,-4.02474,5.03988,-3.83228,5.36572,-3.52612C5.69157,-3.21997,5.85449,-2.80729,5.85449,-2.28809C5.85449,-1.53255,5.58057,-0.944417,5.03271,-0.523682C4.48486,-0.102946,3.70247,0.107422,2.68555,0.107422C1.83333,0.107422,1.0778,-0.0340169,0.418945,-0.316895L0.418945,-1.72949C0.723307,-1.57552,1.05811,-1.4502,1.42334,-1.35352C1.78857,-1.25684,2.15023,-1.2085,2.5083,-1.2085C3.05615,-1.2085,3.46077,-1.3016,3.72217,-1.48779C3.98356,-1.67399,4.11426,-1.97298,4.11426,-2.38477C4.11426,-2.75358,3.96387,-3.01497,3.66309,-3.16895C3.3623,-3.32292,2.88249,-3.3999,2.22363,-3.3999L1.62744,-3.3999L1.62744,-4.67285L2.23438,-4.67285C2.8431,-4.67285,3.288,-4.75252,3.56909,-4.91187C3.85018,-5.07121,3.99072,-5.34424,3.99072,-5.73096C3.99072,-6.32536,3.61833,-6.62256,2.87354,-6.62256C2.61572,-6.62256,2.35343,-6.57959,2.08667,-6.49365C1.81991,-6.40771,1.5236,-6.25911,1.19775,-6.04785L0.429688,-7.19189C1.14583,-7.70752,1.99984,-7.96533,2.9917,-7.96533C3.80452,-7.96533,4.44637,-7.80062,4.91724,-7.47119C5.3881,-7.14176,5.62354,-6.68343,5.62354,-6.09619ZM12.1523,-3.92627C12.1523,-2.55485,11.9277,-1.53971,11.4783,-0.880859C11.0289,-0.222005,10.3369,0.107422,9.40234,0.107422C8.49642,0.107422,7.8134,-0.232747,7.35327,-0.913086C6.89315,-1.59342,6.66309,-2.59782,6.66309,-3.92627C6.66309,-5.31201,6.88688,-6.33341,7.33447,-6.99048C7.78206,-7.64754,8.47135,-7.97607,9.40234,-7.97607C10.3083,-7.97607,10.9931,-7.63232,11.4568,-6.94482C11.9205,-6.25732,12.1523,-5.25114,12.1523,-3.92627ZM8.31201,-3.92627C8.31201,-2.96305,8.39526,-2.27287,8.56177,-1.85571C8.72827,-1.43856,9.00846,-1.22998,9.40234,-1.22998C9.78906,-1.22998,10.0684,-1.44124,10.2402,-1.86377C10.4121,-2.2863,10.498,-2.9738,10.498,-3.92627C10.498,-4.88949,10.4112,-5.58146,10.2375,-6.0022C10.0639,-6.42293,9.78548,-6.6333,9.40234,-6.6333C9.01204,-6.6333,8.73275,-6.42293,8.56445,-6.0022C8.39616,-5.58146,8.31201,-4.88949,8.31201,-3.92627ZM18.418,-3.92627C18.418,-2.55485,18.1933,-1.53971,17.7439,-0.880859C17.2945,-0.222005,16.6025,0.107422,15.668,0.107422C14.762,0.107422,14.079,-0.232747,13.6189,-0.913086C13.1588,-1.59342,12.9287,-2.59782,12.9287,-3.92627C12.9287,-5.31201,13.1525,-6.33341,13.6001,-6.99048C14.0477,-7.64754,14.737,-7.97607,15.668,-7.97607C16.5739,-7.97607,17.2587,-7.63232,17.7224,-6.94482C18.1861,-6.25732,18.418,-5.25114,18.418,-3.92627ZM14.5776,-3.92627C14.5776,-2.96305,14.6609,-2.27287,14.8274,-1.85571C14.9939,-1.43856,15.2741,-1.22998,15.668,-1.22998C16.0547,-1.22998,16.334,-1.44124,16.5059,-1.86377C16.6777,-2.2863,16.7637,-2.9738,16.7637,-3.92627C16.7637,-4.88949,16.6768,-5.58146,16.5032,-6.0022C16.3295,-6.42293,16.0511,-6.6333,15.668,-6.6333C15.2777,-6.6333,14.9984,-6.42293,14.8301,-6.0022C14.6618,-5.58146,14.5776,-4.88949,14.5776,-3.92627ZM24.6836,-3.92627C24.6836,-2.55485,24.4589,-1.53971,24.0095,-0.880859C23.5601,-0.222005,22.8682,0.107422,21.9336,0.107422C21.0277,0.107422,20.3446,-0.232747,19.8845,-0.913086C19.4244,-1.59342,19.1943,-2.59782,19.1943,-3.92627C19.1943,-5.31201,19.4181,-6.33341,19.8657,-6.99048C20.3133,-7.64754,21.0026,-7.97607,21.9336,-7.97607C22.8395,-7.97607,23.5243,-7.63232,23.988,-6.94482C24.4517,-6.25732,24.6836,-5.25114,24.6836,-3.92627ZM20.8433,-3.92627C20.8433,-2.96305,20.9265,-2.27287,21.093,-1.85571C21.2595,-1.43856,21.5397,-1.22998,21.9336,-1.22998C22.3203,-1.22998,22.5996,-1.44124,22.7715,-1.86377C22.9434,-2.2863,23.0293,-2.9738,23.0293,-3.92627C23.0293,-4.88949,22.9425,-5.58146,22.7688,-6.0022C22.5951,-6.42293,22.3167,-6.6333,21.9336,-6.6333C21.5433,-6.6333,21.264,-6.42293,21.0957,-6.0022C20.9274,-5.58146,20.8433,-4.88949,20.8433,-3.92627ZM30.9492,-3.92627C30.9492,-2.55485,30.7245,-1.53971,30.2751,-0.880859C29.8258,-0.222005,29.1338,0.107422,28.1992,0.107422C27.2933,0.107422,26.6103,-0.232747,26.1501,-0.913086C25.69,-1.59342,25.46,-2.59782,25.46,-3.92627C25.46,-5.31201,25.6838,-6.33341,26.1313,-6.99048C26.5789,-7.64754,27.2682,-7.97607,28.1992,-7.97607C29.1051,-7.97607,29.79,-7.63232,30.2537,-6.94482C30.7174,-6.25732,30.9492,-5.25114,30.9492,-3.92627ZM27.1089,-3.92627C27.1089,-2.96305,27.1921,-2.27287,27.3586,-1.85571C27.5251,-1.43856,27.8053,-1.22998,28.1992,-1.22998C28.5859,-1.22998,28.8652,-1.44124,29.0371,-1.86377C29.209,-2.2863,29.2949,-2.9738,29.2949,-3.92627C29.2949,-4.88949,29.2081,-5.58146,29.0344,-6.0022C28.8608,-6.42293,28.5824,-6.6333,28.1992,-6.6333C27.8089,-6.6333,27.5296,-6.42293,27.3613,-6.0022C27.193,-5.58146,27.1089,-4.88949,27.1089,-3.92627ZM37.2148,-3.92627C37.2148,-2.55485,36.9902,-1.53971,36.5408,-0.880859C36.0914,-0.222005,35.3994,0.107422,34.4648,0.107422C33.5589,0.107422,32.8759,-0.232747,32.4158,-0.913086C31.9556,-1.59342,31.7256,-2.59782,31.7256,-3.92627C31.7256,-5.31201,31.9494,-6.33341,32.397,-6.99048C32.8446,-7.64754,33.5339,-7.97607,34.4648,-7.97607C35.3708,-7.97607,36.0556,-7.63232,36.5193,-6.94482C36.983,-6.25732,37.2148,-5.25114,37.2148,-3.92627ZM33.3745,-3.92627C33.3745,-2.96305,33.4578,-2.27287,33.6243,-1.85571C33.7908,-1.43856,34.071,-1.22998,34.4648,-1.22998C34.8516,-1.22998,35.1309,-1.44124,35.3027,-1.86377C35.4746,-2.2863,35.5605,-2.9738,35.5605,-3.92627C35.5605,-4.88949,35.4737,-5.58146,35.3,-6.0022C35.1264,-6.42293,34.848,-6.6333,34.4648,-6.6333C34.0745,-6.6333,33.7952,-6.42293,33.627,-6.0022C33.4587,-5.58146,33.3745,-4.88949,33.3745,-3.92627ZM43.4805,-3.92627C43.4805,-2.55485,43.2558,-1.53971,42.8064,-0.880859C42.357,-0.222005,41.665,0.107422,40.7305,0.107422C39.8245,0.107422,39.1415,-0.232747,38.6814,-0.913086C38.2213,-1.59342,37.9912,-2.59782,37.9912,-3.92627C37.9912,-5.31201,38.215,-6.33341,38.6626,-6.99048C39.1102,-7.64754,39.7995,-7.97607,40.7305,-7.97607C41.6364,-7.97607,42.3212,-7.63232,42.7849,-6.94482C43.2486,-6.25732,43.4805,-5.25114,43.4805,-3.92627ZM39.6401,-3.92627C39.6401,-2.96305,39.7234,-2.27287,39.8899,-1.85571C40.0564,-1.43856,40.3366,-1.22998,40.7305,-1.22998C41.1172,-1.22998,41.3965,-1.44124,41.5684,-1.86377C41.7402,-2.2863,41.8262,-2.9738,41.8262,-3.92627C41.8262,-4.88949,41.7393,-5.58146,41.5657,-6.0022C41.392,-6.42293,41.1136,-6.6333,40.7305,-6.6333C40.3402,-6.6333,40.0609,-6.42293,39.8926,-6.0022C39.7243,-5.58146,39.6401,-4.88949,39.6401,-3.92627ZM49.7461,-3.92627C49.7461,-2.55485,49.5214,-1.53971,49.072,-0.880859C48.6226,-0.222005,47.9307,0.107422,46.9961,0.107422C46.0902,0.107422,45.4071,-0.232747,44.947,-0.913086C44.4869,-1.59342,44.2568,-2.59782,44.2568,-3.92627C44.2568,-5.31201,44.4806,-6.33341,44.9282,-6.99048C45.3758,-7.64754,46.0651,-7.97607,46.9961,-7.97607C47.902,-7.97607,48.5868,-7.63232,49.0505,-6.94482C49.5142,-6.25732,49.7461,-5.25114,49.7461,-3.92627ZM45.9058,-3.92627C45.9058,-2.96305,45.989,-2.27287,46.1555,-1.85571C46.322,-1.43856,46.6022,-1.22998,46.9961,-1.22998C47.3828,-1.22998,47.6621,-1.44124,47.834,-1.86377C48.0059,-2.2863,48.0918,-2.9738,48.0918,-3.92627C48.0918,-4.88949,48.005,-5.58146,47.8313,-6.0022C47.6576,-6.42293,47.3792,-6.6333,46.9961,-6.6333C46.6058,-6.6333,46.3265,-6.42293,46.1582,-6.0022C45.9899,-5.58146,45.9058,-4.88949,45.9058,-3.92627Z" transform="translate(34.7883,7.48999) translate(-25.125,4.26733)"/>
                <path id="Summa-2" fill="#FEAE06" filter="url(#Filter-0)" d="M-0.400391,-2.45459C-0.400391,-1.88525,-0.606283,-1.42782,-1.01807,-1.08228C-1.42985,-0.736735,-2.00635,-0.529948,-2.74756,-0.461914L-2.74756,0.63916L-3.4834,0.63916L-3.4834,-0.44043C-4.3571,-0.458333,-5.12337,-0.612305,-5.78223,-0.902344L-5.78223,-2.32031C-5.4707,-2.16634,-5.09562,-2.03027,-4.65698,-1.91211C-4.21834,-1.79395,-3.82715,-1.72412,-3.4834,-1.70264L-3.4834,-3.36768L-3.84326,-3.50732C-4.55225,-3.78662,-5.05444,-4.09009,-5.34985,-4.41772C-5.64526,-4.74536,-5.79297,-5.15088,-5.79297,-5.63428C-5.79297,-6.15348,-5.58976,-6.58049,-5.18335,-6.91528C-4.77694,-7.25008,-4.21029,-7.45329,-3.4834,-7.5249L-3.4834,-8.34668L-2.74756,-8.34668L-2.74756,-7.54639C-1.92757,-7.51058,-1.18636,-7.34587,-0.523926,-7.05225L-1.02881,-5.79541C-1.5874,-6.02458,-2.16032,-6.16423,-2.74756,-6.21436L-2.74756,-4.62988C-2.04932,-4.36133,-1.55249,-4.12858,-1.25708,-3.93164C-0.96167,-3.7347,-0.745036,-3.51807,-0.607178,-3.28174C-0.46932,-3.04541,-0.400391,-2.76969,-0.400391,-2.45459ZM-2.01709,-2.37402C-2.01709,-2.52441,-2.07796,-2.65153,-2.19971,-2.75537C-2.32145,-2.85921,-2.50407,-2.96663,-2.74756,-3.07764L-2.74756,-1.74023C-2.26058,-1.82259,-2.01709,-2.03385,-2.01709,-2.37402ZM-4.17627,-5.63428C-4.17627,-5.47673,-4.12166,-5.34692,-4.01245,-5.24487C-3.90324,-5.14282,-3.72689,-5.03809,-3.4834,-4.93066L-3.4834,-6.19287C-3.94531,-6.12484,-4.17627,-5.93864,-4.17627,-5.63428Z" transform="translate(3.14062,7.48999) translate(3.14062,4.26733)"/>
            </g>
        </symbol>
        <filter id="a" color-interpolation-filters="sRGB" filterUnits="userSpaceOnUse" height="18" width="17" x="0" y="0" fill="none">
            <feFlood flood-opacity="0" result="BackgroundImageFix"/>
            <feColorMatrix in="SourceAlpha" type="matrix" values="0 0 0 0 0 0 0 0 0 0 0 0 0 0 0 0 0 0 127 0"/>
            <feOffset dy="1"/>
            <feColorMatrix type="matrix" values="0 0 0 0 0.0313726 0 0 0 0 0.12549 0 0 0 0 0.321569 0 0 0 1 0"/>
            <feBlend in2="BackgroundImageFix" mode="normal" result="effect1_dropShadow"/>
            <feBlend in="SourceGraphic" in2="effect1_dropShadow" mode="normal" result="shape"/>
        </filter>
        <filter id="Filter-0" color-interpolation-filters="sRGB">
            <feGaussianBlur in="SourceAlpha" stdDeviation="0"/>
            <feOffset dx="0" dy="1" result="offsetblur"/>
            <feFlood flood-color="#feae06" flood-opacity="0.2"/>
            <feComposite in2="offsetblur" operator="in"/>
            <feMerge>
                <feMergeNode/>
                <feMergeNode in="SourceGraphic"/>
            </feMerge>
        </filter>
        <linearGradient id="Gradient-0" x1="50.5" y1="0" x2="50.5" y2="39" gradientUnits="userSpaceOnUse">
            <stop offset="0" stop-color="#853ae9"/>
            <stop offset="1" stop-color="#411c8d"/>
        </linearGradient>
        <linearGradient id="Gradient-1" x1="0" y1="-8.5" x2="0" y2="8.5" gradientUnits="userSpaceOnUse">
            <stop offset="0" stop-color="#2c7be3"/>
            <stop offset="1" stop-color="#031540"/>
        </linearGradient>
        <linearGradient id="Gradient-2" x1="0" y1="-8.5" x2="0" y2="8.5" gradientUnits="userSpaceOnUse">
            <stop offset="0" stop-color="#0094ff"/>
            <stop offset="1" stop-color="#004196"/>
        </linearGradient>
        <linearGradient id="Gradient-3" x1="6.50228" y1="12.73" x2="6.50228" y2="5.86158" gradientUnits="userSpaceOnUse">
            <stop offset="0" stop-color="#c0c0da"/>
            <stop offset="1" stop-color="#626294"/>
        </linearGradient>
        <linearGradient id="Gradient-4" x1="2.56021" y1="8.65773" x2="7.47448" y2="2.76044" gradientUnits="userSpaceOnUse">
            <stop offset="0" stop-color="#7c7cb4"/>
            <stop offset="1" stop-color="#d8d8f6"/>
        </linearGradient>
        <linearGradient id="Gradient-5" x1="5.37251" y1="5.94673" x2="9.61616" y2="3.87849" gradientUnits="userSpaceOnUse">
            <stop offset="0" stop-color="#2b2b61"/>
            <stop offset="1" stop-color="#c0c0da"/>
        </linearGradient>
        <linearGradient id="Gradient-6" x1="9.38886" y1="11.11" x2="7.00728" y2="9.30736" gradientUnits="userSpaceOnUse">
            <stop offset="0" stop-color="#a3a3d4"/>
            <stop offset="1" stop-color="#252550"/>
        </linearGradient>
        <linearGradient id="Gradient-7" x1="2.09524" y1="10.3077" x2="5.6495" y2="9.30383" gradientUnits="userSpaceOnUse">
            <stop offset="0" stop-color="#8181b9"/>
            <stop offset="1" stop-color="#252550"/>
        </linearGradient>
        <linearGradient id="Gradient-8" x1="5.70937" y1="6.63531" x2="10.4608" y2="2.32406" gradientUnits="userSpaceOnUse">
            <stop offset="0" stop-color="#c0c0da"/>
            <stop offset="1" stop-color="#3a3a64"/>
        </linearGradient>
    </defs>
    <rect width="310" height="39" fill="#d34e2d" stroke="none" rx="2" stroke-linejoin="round" stroke-linecap="butt" stroke-width="1" stroke-opacity="1" stroke-miterlimit="4" stroke-dasharray="none" stroke-dashoffset="0" transform="translate(51.5,27) translate(-51.5,-17)"/>
    <g transform="translate(77,24) translate(-77,-24)">
        <rect id="bg" width="309" height="39" fill="url(#Gradient-0)" stroke="none" rx="2" stroke-linejoin="round" stroke-linecap="butt" stroke-width="1" stroke-opacity="1" stroke-miterlimit="4" stroke-dasharray="none" stroke-dashoffset="0" transform="translate(51.5,25.5) translate(-51,-17)"/>
        <path id="stroke_01" fill="#ffa900" stroke="none" d="M307,-0.5L2,-0.5C1.30964,-0.5,0.720389,-0.255922,0.232233,0.232233C-0.255922,0.720389,-0.5,1.30964,-0.5,2L-0.5,37C-0.5,37.6904,-0.255922,38.2796,0.232235,38.7678C0.720391,39.2559,1.30965,39.5,2,39.5L307,39.5C307.691,39.5,308.28,39.2559,308.768,38.7678C309.256,38.2797,309.5,37.6904,309.5,37L309.5,2C309.5,1.30961,309.256,0.720363,308.768,0.232259C308.28,-0.255914,307.691,-0.5,307,-0.5ZM0.93934,0.93934C1.23223,0.646447,1.58579,0.5,2,0.5L307,0.5C307.414,0.5,307.768,0.646438,308.061,0.939314C308.354,1.23216,308.5,1.58572,308.5,2L308.5,37C308.5,37.4143,308.354,37.7678,308.061,38.0607C307.768,38.3536,307.414,38.5,307,38.5L2,38.5C1.58578,38.5,1.23223,38.3536,0.939338,38.0607C0.646446,37.7678,0.5,37.4142,0.5,37L0.5,2C0.5,1.58579,0.646447,1.23223,0.93934,0.93934Z" fill-rule="evenodd" fill-opacity="1" transform="translate(51.5,25.5) translate(-51,-17)" style="animation: 0.8s linear infinite both stroke_01_f;"/>
        <rect width="301" height="31" fill="rgba(0,0,0,0.50)" stroke="none" rx="0" stroke-linejoin="round" stroke-linecap="butt" stroke-width="1" opacity="1" transform="translate(51.5,21.5) translate(-47,-9)" style="animation: 0.8s linear infinite both a0_o;"/>
        <path id="stroke_02" fill="#ffa900" stroke="none" d="M-0.5,0L-0.5,31C-0.5,31.2761,-0.276142,31.5,0,31.5L301,31.5C301.276,31.5,301.5,31.2761,301.5,31L301.5,0C301.5,-0.276142,301.276,-0.5,301,-0.5L0,-0.5C-0.276142,-0.5,-0.5,-0.276142,-0.5,0ZM0.5,30.5L0.5,0.5L300.5,0.5L300.5,30.5Z" fill-rule="evenodd" fill-opacity="1" transform="translate(51.5,21.5) translate(-47,-9)" style="animation: 0.8s linear infinite both stroke_02_f;"/>
        <rect width="305" height="35" fill="none" stroke="#ffffff" rx="0" stroke-linejoin="bevel" stroke-linecap="butt" stroke-width="1" stroke-dashoffset="0" stroke-miterlimit="1" stroke-dasharray="1 10 1 10" transform="translate(51.5,21.5) translate(-49,-11)" style="animation: 0.8s linear infinite both a1_do;"/>
        <rect width="305" height="35" fill="none" stroke="#ffa900" rx="0" stroke-linejoin="bevel" stroke-linecap="butt" stroke-width="1" stroke-dashoffset="5.5" stroke-miterlimit="1" stroke-dasharray="1 10 1 10" transform="translate(51.5,21.5) translate(-49,-11)" style="animation: 0.8s linear infinite both a2_sw, 0.8s linear infinite both a2_do;"/>
        <g id="crystall" fill="none" transform="translate(155,9) translate(-8.5,-9)">
            <g transform="translate(8.5,8.5) translate(-8.5,-8.5)">
                <ellipse fill="url(#Gradient-1)" rx="8.5" ry="8.5" transform="translate(8.5,8.5)"/>
                <ellipse fill="url(#Gradient-1)" rx="8.5" ry="8.5" transform="translate(8.5,9.5)"/>
                <ellipse stroke="url(#Gradient-2)" rx="8" ry="8" transform="translate(8.5,8.5)"/>
            </g>
            <g clip-rule="evenodd" fill-rule="evenodd" fill="none" transform="translate(8.51125,8.50418) translate(-6.50725,-6.50502)" style="animation: 0.8s linear infinite both a3_t;">
                <g fill="#fff" transform="translate(6.50725,6.50502) translate(-6.50725,-6.50502)">
                    <path d="M6.50212,0.271652L11.1063,6.50082L6.50212,12.73L1.89795,6.50082Z" fill="#cd9500" transform="translate(6.50212,6.50083) translate(-6.50212,-6.50083)"/>
                    <path d="M6.50228,0.271652L8.39811,6.50082L6.50228,12.73L4.60645,6.50082Z" fill="url(#Gradient-3)" transform="translate(6.50228,6.50083) translate(-6.50228,-6.50083)"/>
                    <path d="M6.50212,0.271652L4.60628,6.50082L1.89795,6.50082Z" fill="url(#Gradient-4)" transform="translate(4.20003,3.38624) translate(-4.20003,-3.38624)"/>
                    <path d="M6.50228,0.271652L8.39811,6.50082L11.1064,6.50082Z" fill="url(#Gradient-5)" transform="translate(8.80434,3.38624) translate(-8.80434,-3.38624)"/>
                    <path d="M6.50228,12.7303L8.39811,6.50109L11.1064,6.50109Z" fill="url(#Gradient-6)" transform="translate(8.80434,9.61569) translate(-8.80434,-9.61569)"/>
                    <path d="M6.50212,12.73L4.60628,6.50082L1.89795,6.50082Z" fill="url(#Gradient-7)" transform="translate(4.20003,9.61541) translate(-4.20003,-9.61541)"/>
                    <path d="M9.32625,8.85896L7.92334,8.47871L8.24699,10.2982Z" fill="#fff" opacity="0.26" transform="translate(8.62479,9.38846) translate(-8.62479,-9.38846)"/>
                    <path d="M7.69336,3.94468L8.05167,2.44155L9.00202,3.75645Z" fill="#fff" opacity="0.739" transform="translate(8.34769,3.19312) translate(-8.34769,-3.19312)"/>
                    <path d="M5.11182,8.40504L8.09477,7.91889L7.63977,9.30231L5.90752,10.6727Z" fill="#fff" opacity="0.226" transform="translate(6.6033,9.2958) translate(-6.6033,-9.2958)"/>
                    <path d="M6.50228,0.271652L8.39865,6.50082L4.60645,6.50082Z" fill="url(#Gradient-8)" transform="translate(6.50255,3.38624) translate(-6.50255,-3.38624)"/>
                    <path d="M7.85528,4.46224L4.45361,6.44745L8.46818,6.5008Z" fill="#fff" opacity="0.194" transform="translate(6.46089,5.48152) translate(-6.46089,-5.48152)"/>
                    <path d="M6.51758,0.333122L8.7181,6.56229L6.51758,12.7007L8.2761,6.51679Z" fill="#a6a6e9" transform="translate(7.61784,6.51691) translate(-7.61784,-6.51691)"/>
                    <path d="M3.59424,8.70918L4.88611,7.59795L4.76207,10.2749Z" opacity="0.279" transform="translate(4.24017,8.93642) translate(-4.24017,-8.93642)"/>
                    <path d="M5.56564,3.14492L4.92864,5.35059L2.51416,5.82509Z" opacity="0.593" transform="translate(4.0399,4.48501) translate(-4.0399,-4.48501)"/>
                    <path d="M5.73116,2.67882L8.41999,6.50082L5.04297,4.97548Z" opacity="0.278" transform="translate(6.73148,4.58982) translate(-6.73148,-4.58982)"/>
                    <path d="M4.37412,6.26655L6.498,0.276527L4.76873,6.26655L8.40142,6.47942L4.76873,6.59047L5.62781,9.73944L4.37385,6.59074L1.89844,6.46913Z" transform="translate(5.14993,5.00798) translate(-5.14993,-5.00798)"/>
                    <path d="M6.5127,12.7118L11.1185,6.47942L6.5127,0.271919L10.7886,6.47942L8.41557,6.47942L10.7266,6.6755Z" fill="#a6a6e9" transform="translate(8.8156,6.49186) translate(-8.8156,-6.49186)"/>
                    <path d="M1.896,6.5149L6.5091,0.270836L2.169,6.50488L6.5091,12.7392Z" fill="#fff" transform="translate(4.20255,6.50502) translate(-4.20255,-6.50502)"/>
                </g>
                <path d="M4.60417,8.66667C4.31685,8.66667,4.0413,8.55253,3.83813,8.34937C3.63497,8.14621,3.52083,7.87066,3.52083,7.58334C3.52083,7.87066,3.4067,8.14621,3.20353,8.34937C3.00037,8.55253,2.72482,8.66667,2.4375,8.66667C2.72482,8.66667,3.00037,8.78081,3.20353,8.98397C3.4067,9.18714,3.52083,9.46269,3.52083,9.75C3.52083,9.46269,3.63497,9.18714,3.83813,8.98397C4.0413,8.78081,4.31685,8.66667,4.60417,8.66667Z" fill="#fff" transform="translate(3.52083,8.66667) scale(0.3,0.3) translate(-3.52083,-8.66667)" style="animation: 0.8s linear infinite both a4_t;"/>
                <path d="M10.5625,3.25C10.0597,3.25,9.57748,3.05027,9.22194,2.69473C8.86641,2.33919,8.66667,1.85698,8.66667,1.35417C8.66667,1.85698,8.46693,2.33919,8.11139,2.69473C7.75585,3.05027,7.27364,3.25,6.77083,3.25C7.27364,3.25,7.75585,3.44974,8.11139,3.80528C8.46693,4.16082,8.66667,4.64303,8.66667,5.14584C8.66667,4.64303,8.86641,4.16082,9.22194,3.80528C9.57748,3.44974,10.0597,3.25,10.5625,3.25" fill="#fff" transform="translate(8.66667,3.25) scale(0.3,0.3) translate(-8.66667,-3.25)" style="animation: 0.8s linear infinite both a5_t;"/>
            </g>
        </g>
    </g>
</svg>
