<svg width="280" height="100" viewBox="0 0 280 100" fill="none" xmlns="http://www.w3.org/2000/svg">
<circle cx="50" cy="50" r="50" fill="#9298A8"/>
<path d="M93.4341 26.1291L254.006 24.9711C267.833 24.8714 279.095 36.0528 279.095 49.8803V49.8803C279.095 63.6377 267.943 74.7902 254.185 74.7902H93.4341C101.254 59.6015 101.202 44.7824 93.4341 26.1291Z" fill="#9298A8"/>
<path d="M50.5 25.75L31.5 32.875V47.3387C31.5 59.3325 39.5987 70.5187 50.5 73.25C61.4013 70.5187 69.5 59.3325 69.5 47.3387V32.875L50.5 25.75Z" fill="#1D2640"/>
<path d="M99.5488 53.5039C99.7402 57.0723 102.693 59.3281 107.068 59.3281C111.744 59.3281 114.684 57.0176 114.684 53.3262C114.684 50.4414 113.002 48.8145 108.955 47.8574L106.781 47.3242C104.238 46.6953 103.199 45.875 103.199 44.4805C103.199 42.7305 104.826 41.5273 107.205 41.5273C109.584 41.5273 111.211 42.7168 111.389 44.6855H114.369C114.273 41.2812 111.416 38.9434 107.246 38.9434C103.035 38.9434 100.068 41.2812 100.068 44.6855C100.068 47.4336 101.75 49.1289 105.373 50.0039L107.93 50.6191C110.486 51.248 111.566 52.1641 111.566 53.6953C111.566 55.459 109.775 56.7441 107.287 56.7441C104.689 56.7441 102.789 55.459 102.57 53.5039H99.5488ZM116.557 53.5039C116.748 57.0723 119.701 59.3281 124.076 59.3281C128.752 59.3281 131.691 57.0176 131.691 53.3262C131.691 50.4414 130.01 48.8145 125.963 47.8574L123.789 47.3242C121.246 46.6953 120.207 45.875 120.207 44.4805C120.207 42.7305 121.834 41.5273 124.213 41.5273C126.592 41.5273 128.219 42.7168 128.396 44.6855H131.377C131.281 41.2812 128.424 38.9434 124.254 38.9434C120.043 38.9434 117.076 41.2812 117.076 44.6855C117.076 47.4336 118.758 49.1289 122.381 50.0039L124.938 50.6191C127.494 51.248 128.574 52.1641 128.574 53.6953C128.574 55.459 126.783 56.7441 124.295 56.7441C121.697 56.7441 119.797 55.459 119.578 53.5039H116.557ZM146.689 56.3477H137.502V39.2715H134.439V59H146.689V56.3477ZM154.127 53.5039C154.318 57.0723 157.271 59.3281 161.646 59.3281C166.322 59.3281 169.262 57.0176 169.262 53.3262C169.262 50.4414 167.58 48.8145 163.533 47.8574L161.359 47.3242C158.816 46.6953 157.777 45.875 157.777 44.4805C157.777 42.7305 159.404 41.5273 161.783 41.5273C164.162 41.5273 165.789 42.7168 165.967 44.6855H168.947C168.852 41.2812 165.994 38.9434 161.824 38.9434C157.613 38.9434 154.646 41.2812 154.646 44.6855C154.646 47.4336 156.328 49.1289 159.951 50.0039L162.508 50.6191C165.064 51.248 166.145 52.1641 166.145 53.6953C166.145 55.459 164.354 56.7441 161.865 56.7441C159.268 56.7441 157.367 55.459 157.148 53.5039H154.127ZM177.67 46.7363C179.734 46.7363 181.129 48.2812 181.197 50.4824H174.006C174.156 48.3086 175.605 46.7363 177.67 46.7363ZM181.184 54.7754C180.787 56.0332 179.543 56.8809 177.861 56.8809C175.496 56.8809 173.992 55.2266 173.992 52.7246V52.5469H184.15V51.5352C184.15 47.1738 181.662 44.3574 177.67 44.3574C173.609 44.3574 171.012 47.3652 171.012 51.877C171.012 56.416 173.568 59.2734 177.793 59.2734C181.088 59.2734 183.576 57.4004 183.986 54.7754H181.184ZM198.793 49.5664C198.533 46.7363 196.277 44.3574 192.572 44.3574C188.484 44.3574 185.805 47.2422 185.805 51.8086C185.805 56.457 188.484 59.2734 192.6 59.2734C196.059 59.2734 198.506 57.1953 198.82 54.1328H195.977C195.635 55.8008 194.445 56.7988 192.627 56.7988C190.33 56.7988 188.812 54.9668 188.812 51.8086C188.812 48.7188 190.316 46.8184 192.6 46.8184C194.527 46.8184 195.676 48.0352 195.977 49.5664H198.793ZM213.244 44.6172H210.291V52.998C210.291 55.2402 209.006 56.7168 206.873 56.7168C204.836 56.7168 203.797 55.541 203.797 53.3535V44.6172H200.844V53.9277C200.844 57.2227 202.758 59.2598 205.889 59.2598C208.09 59.2598 209.553 58.2891 210.346 56.5664H210.414V59H213.244V44.6172ZM216.17 59H219.123V50.3867C219.123 48.3496 220.299 47.0781 222.199 47.0781C222.773 47.0781 223.293 47.1465 223.525 47.2422V44.4941C223.307 44.4531 222.938 44.3848 222.514 44.3848C220.818 44.3848 219.533 45.3828 219.055 47.0645H218.986V44.6172H216.17V59ZM230.744 46.7363C232.809 46.7363 234.203 48.2812 234.271 50.4824H227.08C227.23 48.3086 228.68 46.7363 230.744 46.7363ZM234.258 54.7754C233.861 56.0332 232.617 56.8809 230.936 56.8809C228.57 56.8809 227.066 55.2266 227.066 52.7246V52.5469H237.225V51.5352C237.225 47.1738 234.736 44.3574 230.744 44.3574C226.684 44.3574 224.086 47.3652 224.086 51.877C224.086 56.416 226.643 59.2734 230.867 59.2734C234.162 59.2734 236.65 57.4004 237.061 54.7754H234.258ZM244.922 59.2461C247.014 59.2461 248.654 58.1934 249.502 56.5527H249.557V59H252.428V39.2715H249.461V47.0098H249.406C248.6 45.4238 246.959 44.3848 244.895 44.3848C241.285 44.3848 238.879 47.2695 238.879 51.8086C238.879 56.3477 241.285 59.2461 244.922 59.2461ZM245.701 46.873C247.971 46.873 249.488 48.8281 249.488 51.8086C249.488 54.8164 247.971 56.7441 245.701 56.7441C243.363 56.7441 241.9 54.8438 241.9 51.8086C241.9 48.7871 243.363 46.873 245.701 46.873Z" fill="#1D2640"/>
</svg>
